<?xml version="1.0" standalone="no"?>
<!DOCTYPE svg PUBLIC "-//W3C//DTD SVG 20010904//EN"
 "http://www.w3.org/TR/2001/REC-SVG-20010904/DTD/svg10.dtd">
<svg version="1.0" xmlns="http://www.w3.org/2000/svg"
 width="300.000000pt" height="300.000000pt" viewBox="0 0 300.000000 300.000000"
 preserveAspectRatio="xMidYMid meet">
<metadata>
Created by potrace 1.11, written by Peter Selinger 2001-2013
</metadata>
<g transform="translate(0.000000,300.000000) scale(0.100000,-0.100000)"
fill="#000000" stroke="none">
<path d="M320 1495 l0 -1477 33 20 c167 103 236 144 260 154 15 7 27 16 27 20
0 4 4 8 9 8 6 0 38 17 73 39 173 106 741 441 749 441 5 0 9 4 9 9 0 5 8 11 18
15 18 6 26 11 102 61 54 36 80 52 100 61 8 4 38 22 65 39 28 18 149 92 270
164 121 73 227 137 235 142 34 21 402 242 493 295 53 32 97 61 97 65 0 4 -35
26 -77 50 -43 23 -91 50 -108 59 -36 20 -46 26 -510 282 -203 113 -401 222
-440 243 -38 21 -92 52 -120 70 -48 30 -87 52 -220 125 -33 18 -86 48 -118 66
-32 19 -60 34 -62 34 -2 0 -26 13 -52 28 -26 16 -77 44 -113 64 -36 20 -146
80 -245 135 -99 55 -216 119 -260 143 -44 23 -84 46 -90 50 -5 5 -36 22 -67
40 l-58 31 0 -1476z"/>
</g>
</svg>
