<svg xmlns="http://www.w3.org/2000/svg" viewBox="0 0 154.09 121.33"><defs><style>.cls-1{fill:#c72950;}</style></defs><title>chat</title><g id="Layer_2" data-name="Layer 2"><g id="Layer_1-2" data-name="Layer 1"><path class="cls-1" d="M139.31,0c2.07,1,4.24,1.92,6.2,3.16a14.74,14.74,0,0,1,7.1,11.25,84.84,84.84,0,0,1,.17,13.05c-.06,1-1.72,2-2.64,3-.95-1-2.56-1.89-2.72-3a62.7,62.7,0,0,1-.16-8.46c0-8.88-4.32-13.13-13.28-13.18-6.84,0-13.67,0-20.5,0H53C43.41,5.8,39.2,9.93,39.17,19.5q-.06,20.31,0,40.64c0,9.48,4.1,13.43,13.68,13.43H91.37c4.18,0,4.69.53,4.71,4.69,0,5.28,0,10.57,0,16.57,1.24-1,2-1.6,2.72-2.28,5.43-5.4,10.93-10.74,16.21-16.28a8.12,8.12,0,0,1,6.82-2.76c4.35.21,8.72.09,13.07,0,7.88-.08,12.26-4.42,12.35-12.23,0-2.94-.29-5.93.14-8.82.2-1.32,1.83-2.44,2.82-3.64.91,1.14,2.52,2.24,2.6,3.44a78.34,78.34,0,0,1-.12,12.35,16.31,16.31,0,0,1-16,14.49c-4.48,0-9-.17-13.43.11a8.21,8.21,0,0,0-4.87,2c-7.3,7-14.35,14.31-21.61,21.37-1.13,1.09-2.94,1.48-4.43,2.19-.61-1.63-1.68-3.24-1.75-4.88-.21-5.77-.18-11.55,0-17.32.06-2.51-.54-3.66-3.32-3.5-3.85.22-7.71,0-12.11,0,0,2.82-.12,5.27,0,7.69.85,14.84-2.31,20.1-19.4,19.22-4.91-.25-9.84,0-15.3,0,0,4,.17,7.61-.08,11.21-.1,1.44-.81,3.61-1.79,4s-3.07-.62-4.12-1.59c-4-3.69-7.59-7.75-11.6-11.38-1.32-1.19-3.4-1.58-5.18-2.2a5.28,5.28,0,0,0-2.1,0c-7.41.7-12.86-1.9-15.56-9.17V64.35c3-7,8.52-9.23,15.85-8.7,5.7.41,11.46.09,17.58.09V17.26a15.77,15.77,0,0,1,6-13c2.33-1.83,5.27-2.89,7.94-4.3ZM32,61.47c-6.35,0-13.76-.15-21.16.07-3.37.1-5,2.66-5,5.77-.14,9-.16,17.91,0,26.86.07,4,2.47,6.1,6.61,6.26a48.2,48.2,0,0,0,6.36,0,8,8,0,0,1,7.42,3c2.4,2.82,5.12,5.37,7.7,8a18.23,18.23,0,0,0,.85-6.31c0-4.07.64-4.67,4.74-4.69,7.66,0,15.32,0,23,0,3.26,0,6.34-1.18,6.66-4.53.53-5.43.15-11,.15-16.75-6.72,0-13.06,0-19.39,0-4.91,0-9.26-1.69-12-5.65-2.38-3.46-3.76-7.59-5.89-12.06"/><path class="cls-1" d="M93.27,19.83q13.59,0,27.18,0c2.11,0,4.65-.31,4.6,2.85,0,2.84-2.39,2.73-4.42,2.73-18.36,0-36.71.06-55.07-.1-1.36,0-3.61-1.26-3.9-2.34-.71-2.72,1.48-3.17,3.72-3.16,9.3,0,18.59,0,27.89,0"/><path class="cls-1" d="M93,41.61H65.82c-2.07,0-4.3,0-4.31-2.86S63.83,36,65.85,36c18.23,0,36.46,0,54.69.06a6,6,0,0,1,4.23,1.66c1.43,1.83-.44,3.9-3.55,3.92-9.41,0-18.82,0-28.23,0"/><path class="cls-1" d="M81.34,52.21c5.17,0,10.35-.15,15.5.12,1.23.06,3.17,1.37,3.41,2.41.49,2.18-1.33,3-3.34,3H65.18c-1.89,0-3.65-.37-3.69-2.77s1.72-2.74,3.63-2.74H81.34"/><path class="cls-1" d="M154.09,39.81c-1.89,1.23-3,2.51-3.9,2.39s-1.88-1.53-2.81-2.38c1-1,1.81-2.43,3-2.72.75-.19,1.93,1.32,3.76,2.71"/></g></g></svg>