<svg xmlns="http://www.w3.org/2000/svg" viewBox="0 0 102.12 163"><defs><style>.cls-1{fill:#c72950;}</style></defs><title>Asset 1</title><g id="Layer_2" data-name="Layer 2"><g id="Layer_1-2" data-name="Layer 1"><path class="cls-1" d="M7.11,45.07c3.85,0,7.39,0,10.93,0,1.5,0,2.15-.46,2.09-2-.09-2.57,0-5.15,0-8H36V17.13a26.72,26.72,0,0,1-2.64,1.65c-.34.17-.89-.09-1.34-.15.07-.46,0-1.15.23-1.36a49.17,49.17,0,0,1,4.36-3,1.61,1.61,0,0,1,1.37.16A34.79,34.79,0,0,1,41.84,17c.36.3.35,1.06.51,1.61a4,4,0,0,1-1.57,0,20.38,20.38,0,0,1-2.43-1.6V34.92H49.86V2.82a19.73,19.73,0,0,1-2.4,1.55,4.21,4.21,0,0,1-1.59,0c.18-.56.18-1.32.56-1.64A21.68,21.68,0,0,1,50.05.21,2.32,2.32,0,0,1,52,.21a22.3,22.3,0,0,1,3.63,2.54c.38.32.41,1.06.6,1.61a4.92,4.92,0,0,1-1.77-.09,14.44,14.44,0,0,1-2.26-1.49V34.87H63.72V8.37a19.41,19.41,0,0,1-2.59,1.7c-.39.18-1-.15-1.53-.25.14-.45.15-1.07.45-1.31a37.69,37.69,0,0,1,4-2.79,1.8,1.8,0,0,1,1.6,0,33.57,33.57,0,0,1,4,2.78c.31.26.24,1,.34,1.51-.47,0-1,.26-1.4.08A24.83,24.83,0,0,1,66,8.35V35H81.91c0,2.72.08,5.22,0,7.7-.08,1.79.49,2.52,2.38,2.45,3.47-.13,6.94,0,10.57,0,0,.78.13,1.41.13,2q0,9.54,0,19.08A17.38,17.38,0,0,1,83.71,82.92a3.11,3.11,0,0,0-2.14,2.87c-2.09,12.15-8.89,20.53-20.5,24.82a3.45,3.45,0,0,0-2.67,3.21c-.82,6.11.74,11.72,3.07,17.23.48,1.14,1,2.25,1.59,3.52h-11V94.13A7,7,0,0,0,52,92.36c-.11-.41-.55-.73-.85-1.1-.41.34-1,.6-1.18,1a6.19,6.19,0,0,0-.09,2v40.27H39.07c1-2.39,2-4.67,2.79-7a28.78,28.78,0,0,0,1.73-14.15,2.69,2.69,0,0,0-2-2.52C29.49,106.48,22.31,98,20.34,85.16a3.14,3.14,0,0,0-1.62-2c-7.74-3.32-11.6-9-11.61-17.41V45.07m13,19h0c0-2.58.05-5.16,0-7.74-.19-7.72,1.55-6.26-6.73-6.45-1.44,0-2,.55-1.95,2,.05,5.09-.08,10.18.09,15.26.14,4.36,2.42,7.65,6,10.07a2.64,2.64,0,0,0,2,.5c.4-.18.61-1.21.62-1.87.05-3.91,0-7.82,0-11.73M81.91,64h0c0,4,0,8,0,12,0,2.06.7,2.44,2.43,1.33a12.57,12.57,0,0,0,6.21-10.43c.17-5,0-9.91.07-14.87,0-1.5-.47-2.2-2-2.13a36.54,36.54,0,0,1-4.44,0c-1.78-.12-2.32.68-2.28,2.37.07,3.92,0,7.84,0,11.76M51.71,50.61H30.23a6,6,0,0,0-1.76.07c-.39.13-.91.63-.91,1a1.52,1.52,0,0,0,.85,1.06,4,4,0,0,0,1.53.11c14.54,0,29.08,0,43.62,0,.78,0,1.56-.69,2.33-1.05-.75-.37-1.5-1-2.25-1.06-7.31-.08-14.62-.05-21.93-.06"/><path class="cls-1" d="M74.77,146.6H27.26v-4.55H48.38a17.81,17.81,0,0,0,3.1,0,10.19,10.19,0,0,0,2.29-1c-.73-.38-1.46-1.07-2.19-1.08-6.36-.09-12.72,0-19.08,0H27.23c0-1-.08-1.83-.13-2.83H74.77Z"/><path class="cls-1" d="M22.25,151.31V149H79.82c0,.77.07,1.48.11,2.33Z"/><path class="cls-1" d="M102.12,70.87C101.25,79,97.73,84.69,90.81,88a4,4,0,0,0-2.46,3.17c-2.55,12.54-10,20.93-21.94,25.34-.28.1-.58.3-.84.25a12.79,12.79,0,0,1-1.68-.48c.35-.45.61-1.1,1.08-1.33,1.72-.82,3.6-1.35,5.27-2.26,9.28-5.09,14.84-12.83,16.37-23.35a2.81,2.81,0,0,1,2-2.54c6.87-2.87,10.73-8,11.39-15.51.06-.67.65-1.29,1-1.94l1.15,1.49"/><path class="cls-1" d="M41.28,156.32H71a7.91,7.91,0,0,1,1.76.08c.28.06.68.51.65.74a1.37,1.37,0,0,1-.62,1,4,4,0,0,1-1.52.14q-29.61,0-59.22,0a9.14,9.14,0,0,1-2.78-.94,9,9,0,0,1,2.73-1c9.76-.07,19.52,0,29.28,0"/><path class="cls-1" d="M68.14,163c-6.79,0-13.58,0-20.37,0-.68,0-1.36-.65-2-1,.65-.33,1.3-.93,2-.93q20.58-.09,41.18,0c.65,0,1.31.62,2,1-.7.34-1.39,1-2.09,1-6.86.08-13.73.05-20.59,0"/><path class="cls-1" d="M2.13,40.84c0,5.46,0,10.69,0,15.91,0,1,.73,2.59-1.09,2.79-.22,0-.89-1.74-.91-2.68C0,51.68.14,46.5,0,41.33c0-2.1.68-2.71,2.69-2.61,3.18.14,6.36,0,9.54.08.65,0,1.28.63,1.91,1-.61.36-1.22,1-1.85,1-3.31.11-6.62.05-10.16.05"/><path class="cls-1" d="M14.38,162.87c-3.11,0-6.21.06-9.31-.05-.65,0-1.27-.64-1.91-1,.63-.35,1.25-1,1.88-1q9.3-.12,18.61,0c.64,0,1.27.63,1.91,1-.63.35-1.24,1-1.88,1-3.1.11-6.2.05-9.3.05"/><path class="cls-1" d="M96.81,162.94a12,12,0,0,1-2.4,0c-.43-.09-.76-.66-1.13-1,.35-.31.68-.86,1-.89a40.52,40.52,0,0,1,5,0c.44,0,.84.61,1.26.94-.47.34-.9.86-1.43,1a11.28,11.28,0,0,1-2.4.05Z"/><path class="cls-1" d="M17.75,74.66C15.62,73,14,70.9,13.91,68.38c-.26-5.34-.08-10.7-.08-16.18h3.92Z"/><path class="cls-1" d="M84.19,52.2h4.08c0,5.38.18,10.68-.08,15.94-.13,2.6-1.65,4.79-4,6.57Z"/></g></g></svg>