<svg xmlns="http://www.w3.org/2000/svg" viewBox="0 0 127.6 103.47"><defs><style>.cls-1{fill:#c72950;}</style></defs><title>earth</title><g id="Layer_2" data-name="Layer 2"><g id="Layer_1-2" data-name="Layer 1"><path class="cls-1" d="M90.43,85.88c-10.64,12.94-31.22,21.68-52.85,15.63a51.72,51.72,0,1,1,52.9-83.95C73,22.92,62.63,34.31,63.16,52.93,63.66,70.39,74,81,90.43,85.88M47.69,15.63a8.77,8.77,0,0,0-8.22-1,2.11,2.11,0,0,1-1,.11,21.49,21.49,0,0,0-9.75.88c-.42.13-1,.25-1.2.57-2,2.81-4,5.66-3.34,9.43a1.71,1.71,0,0,1-.31,1.35c-1.42,1.29-2.75,2.82-4.42,3.64a7.91,7.91,0,0,0-4.73,8.12,16.83,16.83,0,0,1-1.23,7.21c-1,2.67-.35,4.7,2,6.37a8.84,8.84,0,0,0,3.1,1.54,6.09,6.09,0,0,1,3.88,2.27,5.1,5.1,0,0,0,2.37,1.55c.66.21,1.92.14,2.19-.27,1.19-1.83,2.83-1.48,4.48-1.27,1.86.23,3.69.67,5.55.78C39.62,57,41,56,41.31,53.38A33.66,33.66,0,0,0,41.43,47c-.23-3.86-.5-7.65,1.63-11.21,1.36-2.29,2.37-4.79,3.54-7.19a5.14,5.14,0,0,1,.51-.74,41.29,41.29,0,0,0,3.27-4.33,16.69,16.69,0,0,1,6.22-6.29,17.82,17.82,0,0,0,2.77-1.85c.41-.36.87-1.24.7-1.59a2.89,2.89,0,0,0-1.63-1.1c-.43-.15-1,.14-1.49.09a6.08,6.08,0,0,1-2.45-.46,2.78,2.78,0,0,0-3.5.21c-1.14.92-2.15,2-3.31,3.06M29.26,63.94v-.36a4.84,4.84,0,0,0-4.58,2.15,1.88,1.88,0,0,1-.9.76,1.91,1.91,0,0,0-1.57,2.11c.1,1.23,0,2.59,1.52,3.19.29.12.69.61.65.87-.37,2.53,1.32,3.73,3.15,4.65A46.11,46.11,0,0,0,34,79.93a10.26,10.26,0,0,1,6.41,5.82c.79,1.69,1.63,3.36,2.45,5a2.63,2.63,0,0,0,2.92,1.69c.93-.16,1.22.28,1.53,1A8.47,8.47,0,0,0,51.78,98a1.64,1.64,0,0,0,2.43-1c.87-2,1.75-4,2.6-5.94a2.85,2.85,0,0,0,.37-1.45c-.56-2.9-.71-6-3.69-7.77a1.23,1.23,0,0,1-.53-1c.73-2.12-.19-4-.83-5.89a2.91,2.91,0,0,1,.27-2.84,3.61,3.61,0,0,0,.33-4.16c-1.86-2.55-4-5-7.63-4.68-2,.16-3.91.62-5.87.69-3.32.12-6.65,0-10,0"/><path class="cls-1" d="M97.71,21.73a30,30,0,1,1-30,29.85A30,30,0,0,1,97.71,21.73M72.17,51.58A25.46,25.46,0,1,0,97.86,26.24,25.49,25.49,0,0,0,72.17,51.58"/><path class="cls-1" d="M97.73,30.94A20.82,20.82,0,1,1,76.84,51.45,20.81,20.81,0,0,1,97.73,30.94M100,48.54V44.65c0-1.26,0-2.53,0-3.8a2.38,2.38,0,0,0-2.4-2.42,2.3,2.3,0,0,0-2.23,2.41c0,3.6-.06,7.19,0,10.79a2.25,2.25,0,0,0,3.08,2.29c2.23-.65,4.46-1.33,6.67-2.07a2.27,2.27,0,0,0,1.74-2.9,2.32,2.32,0,0,0-3.14-1.52c-1.16.33-2.32.69-3.7,1.11"/></g></g></svg>