<svg xmlns="http://www.w3.org/2000/svg" viewBox="0 0 73.45 91.88"><defs><style>.cls-1{fill:#c72950;}</style></defs><title>paper</title><g id="Layer_2" data-name="Layer 2"><g id="Layer_1-2" data-name="Layer 1"><path class="cls-1" d="M0,45.93Q0,28.08,0,10.21C0,5.64,3.85,1,8.38.3A48.31,48.31,0,0,1,15.3,0C25.6,0,35.9.08,46.19.09a4.79,4.79,0,0,1,3.67,1.53Q61,13,72.24,24.29a4.58,4.58,0,0,1,1.19,3.43q0,6.91,0,13.83c0,12.94,0,25.89,0,38.83a11.3,11.3,0,0,1-2,7A10.13,10.13,0,0,1,63,91.84c-16.81,0-33.61,0-50.42,0-2.18,0-4.37,0-6.38-1-3.84-2-6.13-5-6.15-9.4C0,69.64,0,57.79,0,45.93m35.83,15.6H63V58.07H35.85Zm-9-12.13L35,25.9l-3.64-1.23L23.2,48.14l3.63,1.26M63,67.14H35.87v3.41H63ZM9.1,36.64l9.49,7.67,2.47-3-5.53-4.5L21,32.9c-.78-1.08-1.53-2.1-2.3-3.15L9.1,36.64m39.41-.09-9.59-6.9L36.64,32.8l5.53,4-5.54,4.52L39,44.21l9.47-7.66m12.94-12L49.51,12.41c0,3.3-.07,6.41,0,9.5a2.73,2.73,0,0,0,2.72,2.63c3,.05,6,0,9.19,0M48.54,79.81h14.4V76.4H48.54Z"/></g></g></svg>